<?xml version="1.0" encoding="UTF-8"?>
<svg width="14px" height="20px" viewBox="0 0 14 20" version="1.1" xmlns="http://www.w3.org/2000/svg" xmlns:xlink="http://www.w3.org/1999/xlink">
    <title>Combined shape 516</title>
    <g id="Page-1" stroke="none" stroke-width="1" fill="none" fill-rule="evenodd">
        <g id="Chat-macOS" transform="translate(-386.000000, -754.000000)">
            <rect id="Rectangle" stroke="#979797" fill="#FFFFFF" x="329.5" y="729.5" width="1071" height="71"></rect>
            <g id="Center" transform="translate(328.000000, -0.500000)">
                <polygon id="Background" fill="#FFFFFF" points="2.228437 0.499824 1070.77156 0.499824 1070.77156 800.500176 2.228437 800.500176"></polygon>
                <g id="Write" transform="translate(0.500000, 727.000000)">
                    <rect id="Rectangle" stroke-opacity="0" stroke="#FFFFFF" fill="#FFFFFF" x="1" y="3.5" width="1070" height="70"></rect>
                    <path d="M58.727319,39.3749095 C59.285908,41.879079 61.6223315,43.7499015 64.250062,43.7499015 C66.877715,43.7499015 69.214123,41.879079 69.772712,39.3749095 L71.0000485,39.3749095 C70.458308,42.3741165 67.893244,44.693515 64.863645,44.971983 L64.863645,46.2501365 L65.4773055,46.2501365 C65.816182,46.2501365 66.0909815,46.5298945 66.0909815,46.875034 C66.0909815,47.2201735 65.816182,47.4999745 65.4773055,47.4999745 L63.0228185,47.4999745 C62.683849,47.4999745 62.409065,47.2201735 62.409065,46.875034 C62.409065,46.5298945 62.683849,46.2501365 63.0228185,46.2501365 L63.6364015,46.2501365 L63.6364015,44.971983 C60.6067095,44.693515 58.0416455,42.3741165 57.4999825,39.3749095 L58.727319,39.3749095 Z M64.250062,27.4999435 C66.622275,27.4999435 68.5454685,29.4588945 68.5454685,31.875172 L68.5454685,38.1250715 C68.5454685,40.541306 66.622275,42.5000635 64.250062,42.5000635 C61.8776785,42.5000635 59.9545625,40.541306 59.9545625,38.1250715 L59.9545625,31.875172 C59.9545625,29.4588945 61.8776785,27.4999435 64.250062,27.4999435 Z M64.250062,28.749975 C62.555509,28.749975 61.1818215,30.1492595 61.1818215,31.875172 L61.1818215,38.1250715 C61.1818215,39.850984 62.555509,41.250032 64.250062,41.250032 C65.944522,41.250032 67.318225,39.850984 67.318225,38.1250715 L67.318225,31.875172 C67.318225,30.1492595 65.944522,28.749975 64.250062,28.749975 Z" id="Combined-shape-516" fill="#000000" opacity="0.4"></path>
                </g>
            </g>
        </g>
    </g>
</svg>
