<?xml version="1.0" encoding="UTF-8"?>
<svg width="12px" height="20px" viewBox="0 0 12 20" version="1.1" xmlns="http://www.w3.org/2000/svg" xmlns:xlink="http://www.w3.org/1999/xlink">
    <title>Icon</title>
    <g id="Page-1" stroke="none" stroke-width="1" fill="none" fill-rule="evenodd">
        <g id="Chat-macOS" transform="translate(-354.000000, -754.000000)">
            <rect id="Rectangle" stroke="#979797" fill="#FFFFFF" x="329.5" y="729.5" width="1071" height="71"></rect>
            <g id="Center" transform="translate(328.000000, -0.500000)">
                <polygon id="Background" fill="#FFFFFF" points="2.228437 0.499824 1070.77156 0.499824 1070.77156 800.500176 2.228437 800.500176"></polygon>
                <g id="Write" transform="translate(0.500000, 727.000000)">
                    <rect id="Rectangle" stroke-opacity="0" stroke="#FFFFFF" fill="#FFFFFF" x="1" y="3.5" width="1070" height="70"></rect>
                    <path d="M25.5000935,31.250042 C25.5000935,29.178984 27.51482,27.499988 30.0000215,27.499988 C32.4853175,27.499988 34.499963,29.178984 34.499963,31.250042 L34.499963,42.500094 C34.499963,43.880836 33.1568075,44.99991 31.4999795,44.99991 C29.8431515,44.99991 28.499996,43.880836 28.499996,42.500094 L28.499996,32.50006 L30.0000215,32.50006 L30.0000215,42.500094 C30.0000215,43.190366 30.671525,43.75009 31.4999795,43.75009 C32.328434,43.75009 33.0000185,43.190366 33.0000185,42.500094 L33.0000185,31.250042 C33.0000185,29.8693 31.656863,28.750028 30.0000215,28.750028 C28.3431125,28.750028 26.999957,29.8693 26.999957,31.250042 L26.999957,42.500094 C26.999957,44.571152 29.014697,46.250148 31.4999795,46.250148 C33.985262,46.250148 36.000002,44.571152 36.000002,42.500094 L36.000002,30.000046 L37.4999465,30.000046 L37.4999465,43.125004 C37.130195,45.59072 34.5592145,47.500122 31.4999795,47.500122 C28.4409065,47.500122 25.869845,45.59072 25.499918,43.125004 L25.5000935,31.250042 Z" id="Icon" fill="#000000" opacity="0.4"></path>
                </g>
            </g>
        </g>
    </g>
</svg>
